<svg width="85" height="18" viewBox="0 0 85 18" fill="none" xmlns="http://www.w3.org/2000/svg">
<path d="M8.88154 16.4773C9.51802 16.4773 10.1064 16.3409 10.6468 16.0682C11.187 15.7879 11.62 15.3864 11.9457 14.8636C12.2713 14.3409 12.4342 13.7045 12.4342 12.9545C12.4342 12.2045 12.2713 11.5795 11.9457 11.0795C11.62 10.5719 11.187 10.1894 10.6468 9.93182C10.1064 9.67421 9.51802 9.54545 8.88154 9.54545H5.09579C4.85889 9.54545 4.70722 9.58331 4.64061 9.65909C4.58134 9.73488 4.55179 9.90149 4.55179 10.1591V16.0455C4.55179 16.2349 4.58877 16.356 4.66281 16.4091C4.73677 16.4545 4.86999 16.4773 5.06248 16.4773H8.88154ZM5.09579 8.29545H8.6595C9.22195 8.29545 9.75484 8.18558 10.2582 7.96591C10.7689 7.74624 11.1833 7.40533 11.5016 6.94318C11.8272 6.47351 11.9901 5.86364 11.9901 5.11364C11.9901 4.36364 11.8272 3.75376 11.5016 3.28409C11.1833 2.81442 10.7689 2.47351 10.2582 2.26136C9.75484 2.0417 9.22195 1.93182 8.6595 1.93182H4.94036C4.76273 1.93182 4.65171 1.96967 4.6073 2.04546C4.57024 2.12124 4.55179 2.25376 4.55179 2.44318V7.84091C4.55179 8.06058 4.5851 8.19318 4.65171 8.23864C4.72567 8.27649 4.87375 8.29545 5.09579 8.29545ZM9.10358 17.7273H0.455179C0.284895 17.7273 0.166529 17.7121 0.0999173 17.6818C0.0333057 17.644 0 17.5379 0 17.3636V16.8636C0 16.6894 0.0295505 16.5833 0.0888152 16.5455C0.147998 16.5 0.255344 16.4773 0.410771 16.4773H1.99835C2.15377 16.4773 2.26479 16.4583 2.3314 16.4205C2.40536 16.3826 2.44242 16.2879 2.44242 16.1364V2.36364C2.44242 2.15909 2.40912 2.03785 2.34251 2C2.28324 1.95455 2.15002 1.93182 1.94284 1.93182H0.455179C0.27012 1.93182 0.147998 1.91285 0.0888152 1.875C0.0295505 1.82955 0 1.71215 0 1.52273V1.04546C0 0.893968 0.0258769 0.795454 0.0777132 0.75C0.129468 0.704545 0.225711 0.681818 0.366363 0.681818H8.6595C9.77704 0.681818 10.7503 0.848512 11.5793 1.18182C12.4156 1.5076 13.0632 2 13.5221 2.65909C13.981 3.31058 14.2105 4.12876 14.2105 5.11364C14.2105 6.09851 13.9958 6.88636 13.5666 7.47727C13.1447 8.06058 12.5192 8.47351 11.6903 8.71591C11.5275 8.76136 11.4498 8.81442 11.4572 8.875C11.4645 8.93558 11.5349 8.98488 11.6681 9.02273C12.6821 9.29545 13.4703 9.75 14.0328 10.3864C14.5953 11.0151 14.8766 11.8712 14.8766 12.9545C14.8766 14.0909 14.6434 15.0114 14.1772 15.7159C13.7109 16.4129 13.0448 16.9242 12.1788 17.25C11.3202 17.5682 10.2952 17.7273 9.10358 17.7273ZM16.9209 1.81818C16.9209 1.43942 17.0504 1.1174 17.3095 0.852272C17.5759 0.587149 17.8904 0.454546 18.2531 0.454546C18.6232 0.454546 18.9378 0.587149 19.1968 0.852272C19.4558 1.1174 19.5854 1.43942 19.5854 1.81818C19.5854 2.18942 19.4558 2.51136 19.1968 2.78409C18.9378 3.04922 18.6232 3.18182 18.2531 3.18182C17.8904 3.18182 17.5759 3.04922 17.3095 2.78409C17.0504 2.51136 16.9209 2.18942 16.9209 1.81818ZM17.0985 7.15909H15.5998C15.4887 7.15909 15.4221 7.14397 15.3999 7.11364C15.3777 7.07579 15.3666 7 15.3666 6.88636V6.20455C15.3666 6.0076 15.4554 5.90909 15.6331 5.90909H19.1524C19.2412 5.90909 19.2967 5.92422 19.3189 5.95455C19.3485 5.98488 19.3633 6.04921 19.3633 6.14773V16.2045C19.3633 16.3031 19.3781 16.375 19.4077 16.4205C19.4447 16.4583 19.5076 16.4773 19.5965 16.4773H21.0952C21.1988 16.4773 21.2692 16.4886 21.3061 16.5114C21.3431 16.5341 21.3617 16.5985 21.3617 16.7045V17.4545C21.3617 17.5606 21.3506 17.6326 21.3284 17.6705C21.3136 17.7083 21.2543 17.7273 21.1507 17.7273H15.7108C15.585 17.7273 15.4962 17.7121 15.4443 17.6818C15.3925 17.6515 15.3666 17.5758 15.3666 17.4545V16.8182C15.3666 16.6667 15.3925 16.5719 15.4443 16.5341C15.5035 16.4962 15.5998 16.4773 15.733 16.4773H17.1096C17.2354 16.4773 17.3095 16.4545 17.3317 16.4091C17.3539 16.3636 17.365 16.2803 17.365 16.1591V7.43182C17.365 7.25 17.2761 7.15909 17.0985 7.15909ZM27.8955 15.5114C27.7475 15.9659 27.5329 16.3826 27.2516 16.7614C26.9778 17.1401 26.6299 17.4432 26.208 17.6705C25.7935 17.8901 25.2976 18 24.7203 18C23.921 18 23.3474 17.7841 22.9995 17.3523C22.6517 16.9205 22.4777 16.394 22.4777 15.7727V7.54545C22.4777 7.40909 22.4519 7.31058 22.4 7.25C22.3483 7.18942 22.2557 7.15909 22.1225 7.15909H20.8013C20.6459 7.15909 20.5423 7.14012 20.4905 7.10227C20.4387 7.06442 20.4128 6.96967 20.4128 6.81818V6.20455C20.4128 6.06058 20.4313 5.97727 20.4683 5.95455C20.5127 5.92422 20.6053 5.90909 20.7458 5.90909C21.1455 5.90909 21.4712 5.8826 21.7228 5.82955C21.9745 5.77649 22.1817 5.65909 22.3445 5.47727C22.5074 5.29545 22.6517 5.01136 22.7775 4.625C22.9034 4.23864 23.0403 3.71591 23.1883 3.05682C23.2179 2.92806 23.2512 2.84091 23.2882 2.79546C23.3252 2.75 23.4252 2.72727 23.5879 2.72727H24.1874C24.3799 2.72727 24.4761 2.83715 24.4761 3.05682V5.55682C24.4761 5.71591 24.5131 5.81442 24.5871 5.85227C24.6611 5.89012 24.7685 5.90909 24.9091 5.90909H28.6798C28.8279 5.90909 28.924 5.93182 28.9684 5.97727C29.0203 6.02273 29.0462 6.125 29.0462 6.28409V6.875C29.0462 7.01136 29.0166 7.09467 28.9573 7.125C28.9056 7.14773 28.813 7.15909 28.6798 7.15909H24.9313C24.7758 7.15909 24.6611 7.17806 24.5871 7.21591C24.5131 7.25376 24.4761 7.35988 24.4761 7.53409V15.2955C24.4761 15.75 24.5649 16.0795 24.7425 16.2841C24.9202 16.4886 25.157 16.5909 25.453 16.5909C25.7713 16.5909 26.0563 16.4773 26.3079 16.25C26.567 16.0151 26.7927 15.6818 26.9851 15.25C27.0369 15.1364 27.0814 15.0682 27.1183 15.0455C27.1627 15.0227 27.2442 15.0341 27.3626 15.0795L27.7178 15.2045C27.8067 15.2349 27.8659 15.269 27.8955 15.3068C27.9325 15.3447 27.9325 15.4129 27.8955 15.5114ZM45.4385 15.5682C45.2386 16.2576 44.8871 16.8295 44.3838 17.2841C43.8879 17.731 43.1848 17.9545 42.2744 17.9545C41.5343 17.9545 40.9792 17.8106 40.6091 17.5227C40.239 17.2273 39.9874 16.8409 39.8542 16.3636C39.721 15.8788 39.6433 15.3523 39.6211 14.7841C39.5989 14.2083 39.5692 13.6364 39.5323 13.0682C39.5026 12.4924 39.4027 11.9659 39.2325 11.4886C39.0696 11.0038 38.7773 10.6174 38.3554 10.3295C37.9336 10.0341 37.3155 9.88636 36.5014 9.88636H33.6815C33.4373 9.88636 33.2892 9.92422 33.2375 10C33.1931 10.0682 33.1708 10.2273 33.1708 10.4773V16.0909C33.1708 16.2651 33.2004 16.375 33.2597 16.4205C33.3188 16.4583 33.4373 16.4773 33.6149 16.4773H35.2691C35.4245 16.4773 35.5207 16.5038 35.5578 16.5568C35.5947 16.6099 35.6133 16.7197 35.6133 16.8864V17.3977C35.6133 17.5417 35.5873 17.6326 35.5356 17.6705C35.4912 17.7083 35.3949 17.7273 35.2469 17.7273H28.9632C28.8226 17.7273 28.7301 17.7045 28.6857 17.6591C28.6413 17.606 28.6191 17.5076 28.6191 17.3636V16.875C28.6191 16.7008 28.6449 16.5909 28.6968 16.5455C28.756 16.5 28.8633 16.4773 29.0187 16.4773H30.5286C30.758 16.4773 30.9023 16.4545 30.9616 16.4091C31.0282 16.356 31.0615 16.2159 31.0615 15.9886V2.47727C31.0615 2.23488 31.0282 2.08331 30.9616 2.02273C30.9023 1.96215 30.7543 1.93182 30.5175 1.93182H29.0187C28.8262 1.93182 28.7115 1.89773 28.6746 1.82955C28.6375 1.76136 28.6191 1.625 28.6191 1.42045V1.06818C28.6191 0.916694 28.6338 0.814422 28.6635 0.761364C28.7004 0.708305 28.7893 0.681818 28.9299 0.681818H37.3896C38.7292 0.681818 39.806 0.886363 40.6202 1.29545C41.4344 1.70455 42.0228 2.25376 42.3854 2.94318C42.7555 3.6326 42.9405 4.39397 42.9405 5.22727C42.9405 6.15909 42.7296 6.96215 42.3077 7.63636C41.8859 8.30306 41.1457 8.80306 40.0873 9.13636C39.8801 9.20455 39.7727 9.27649 39.7654 9.35227C39.7654 9.42806 39.8875 9.53033 40.1318 9.65909C40.6794 9.95455 41.0754 10.3258 41.3197 10.7727C41.5713 11.2197 41.7341 11.7008 41.8081 12.2159C41.8821 12.731 41.9154 13.2386 41.9081 13.7386C41.9081 14.2386 41.9192 14.6969 41.9414 15.1136C41.9709 15.5227 42.0635 15.8523 42.2189 16.1023C42.3817 16.3523 42.6667 16.4773 43.0738 16.4773C43.2809 16.4773 43.4882 16.3826 43.6955 16.1932C43.9101 16.0038 44.0988 15.7121 44.2617 15.3182C44.2986 15.2273 44.3353 15.0714 44.3724 15.0184C44.4168 14.9578 44.4948 15.0303 44.6058 15.0682L45.1609 15.25C45.2719 15.2879 45.3533 15.3258 45.4052 15.3636C45.4569 15.4015 45.468 15.4697 45.4385 15.5682ZM33.6926 8.52273H37.3896C37.952 8.52273 38.4849 8.40533 38.9883 8.17045C39.4989 7.92806 39.9134 7.56442 40.2317 7.07955C40.5573 6.59467 40.7202 5.97727 40.7202 5.22727C40.7202 4.47727 40.5573 3.85988 40.2317 3.375C39.9134 2.8826 39.4989 2.51897 38.9883 2.28409C38.4849 2.04921 37.952 1.93182 37.3896 1.93182H33.6926C33.4335 1.93182 33.2819 1.95455 33.2375 2C33.1931 2.04545 33.1708 2.20079 33.1708 2.46591V7.97727C33.1708 8.21215 33.1967 8.36364 33.2486 8.43182C33.3077 8.4924 33.4557 8.52273 33.6926 8.52273ZM45.7744 11.5909C45.7744 12.5303 45.8521 13.4053 46.0075 14.2159C46.1703 15.0265 46.4664 15.6818 46.8957 16.1818C47.3249 16.6818 47.9429 16.9318 48.7497 16.9318C49.3566 16.9318 49.8525 16.7917 50.2374 16.5114C50.6296 16.2235 50.933 15.8447 51.1477 15.375C51.3623 14.9053 51.5103 14.3826 51.5918 13.8068C51.6806 13.2235 51.725 12.6364 51.725 12.0455C51.725 11.106 51.6436 10.231 51.4808 9.42045C51.3254 8.60988 51.0329 7.95455 50.6037 7.45455C50.1744 6.95455 49.5564 6.70455 48.7497 6.70455C48.1428 6.70455 47.6432 6.84851 47.2509 7.13636C46.8661 7.41669 46.5663 7.79169 46.3517 8.26136C46.137 8.73103 45.9853 9.2576 45.8965 9.84091C45.815 10.4167 45.7744 11 45.7744 11.5909ZM43.443 12.0455C43.443 10.8333 43.6354 9.75 44.0203 8.79546C44.4125 7.83331 45.0009 7.07579 45.7855 6.52273C46.57 5.96215 47.558 5.68182 48.7497 5.68182C49.9413 5.68182 50.9294 5.95455 51.7139 6.5C52.4984 7.03785 53.0831 7.7576 53.468 8.65909C53.8603 9.55306 54.0564 10.5303 54.0564 11.5909C54.0564 12.8031 53.8603 13.8901 53.468 14.8523C53.0831 15.8068 52.4984 16.5644 51.7139 17.125C50.9294 17.6781 49.9413 17.9545 48.7497 17.9545C47.558 17.9545 46.57 17.6856 45.7855 17.1477C45.0009 16.6023 44.4125 15.8826 44.0203 14.9886C43.6354 14.0871 43.443 13.106 43.443 12.0455ZM57.6313 11.8182C57.6313 12.6818 57.7646 13.4924 58.031 14.25C58.2974 15 58.6749 15.6099 59.1634 16.0795C59.6593 16.5417 60.244 16.7727 60.9175 16.7727C61.5395 16.7727 62.0832 16.5417 62.5493 16.0795C63.0154 15.6099 63.3787 15 63.6375 14.25C63.8962 13.4924 64.026 12.6818 64.026 11.8182C64.026 10.9545 63.8962 10.1477 63.6375 9.39773C63.3787 8.64012 63.0154 8.03033 62.5493 7.56818C62.0832 7.09851 61.5395 6.86364 60.9175 6.86364C60.244 6.86364 59.6593 7.09851 59.1634 7.56818C58.6749 8.03033 58.2974 8.64012 58.031 9.39773C57.7646 10.1477 57.6313 10.9545 57.6313 11.8182ZM53.8234 1.25C53.7493 1.25 53.6976 1.23103 53.6679 1.19318C53.6457 1.15533 53.6346 1.09851 53.6346 1.02273V0.170455C53.6346 0.109877 53.6421 0.0681823 53.6568 0.0454551C53.6716 0.0151242 53.7049 0 53.7568 0H57.4537C57.5129 0 57.5573 0.011364 57.5869 0.0340913C57.6166 0.049215 57.6313 0.0871495 57.6313 0.147728V7.875C57.6313 8.04169 57.6388 8.14012 57.6535 8.17045C57.6683 8.19318 57.6979 8.15909 57.7424 8.06818C58.1124 7.32578 58.6009 6.74624 59.2078 6.32955C59.8147 5.91285 60.5178 5.70455 61.3172 5.70455C62.1983 5.70455 63.0122 5.94694 63.7599 6.43182C64.5069 6.90909 65.1069 7.60603 65.5583 8.52273C66.017 9.43182 66.2464 10.5303 66.2464 11.8182C66.2464 13.106 66.017 14.2083 65.5583 15.125C65.1069 16.0417 64.5069 16.7424 63.7599 17.2273C63.0122 17.7121 62.1983 17.9545 61.3172 17.9545C60.54 17.9545 59.8517 17.7614 59.2522 17.375C58.6601 16.981 58.179 16.4281 57.809 15.7159C57.7349 15.5795 57.6868 15.5265 57.6646 15.5568C57.6424 15.5795 57.6313 15.7273 57.6313 16V17.3182C57.6313 17.4318 57.6128 17.5303 57.5758 17.6136C57.5462 17.6894 57.4722 17.7273 57.3538 17.7273H53.8456C53.7568 17.7273 53.6976 17.7197 53.6679 17.7045C53.6457 17.6818 53.6346 17.625 53.6346 17.5341V16.6591C53.6346 16.5833 53.6494 16.5341 53.679 16.5114C53.716 16.4886 53.7715 16.4773 53.8456 16.4773H55.4443C55.5256 16.4773 55.5775 16.4659 55.5997 16.4432C55.6219 16.4129 55.633 16.356 55.633 16.2727V1.47727C55.633 1.32579 55.5738 1.25 55.4554 1.25H53.8234ZM69.3019 11.5909C69.3019 12.5303 69.3803 13.4053 69.5354 14.2159C69.6978 15.0265 69.9941 15.6818 70.4235 16.1818C70.8529 16.6818 71.4709 16.9318 72.2774 16.9318C72.8847 16.9318 73.3802 16.7917 73.7655 16.5114C74.1574 16.2235 74.461 15.8447 74.6757 15.375C74.8904 14.9053 75.0382 14.3826 75.1198 13.8068C75.2088 13.2235 75.2529 12.6364 75.2529 12.0455C75.2529 11.106 75.1712 10.231 75.0088 9.42045C74.8529 8.60988 74.5606 7.95455 74.1312 7.45455C73.7027 6.95455 73.0839 6.70455 72.2774 6.70455C71.6709 6.70455 71.1713 6.84851 70.7786 7.13636C70.3941 7.41669 70.0946 7.79169 69.8799 8.26136C69.6652 8.73103 69.5133 9.2576 69.4244 9.84091C69.3427 10.4167 69.3019 11 69.3019 11.5909ZM66.9705 12.0455C66.9705 10.8333 67.1632 9.75 67.5485 8.79546C67.9403 7.83331 68.5289 7.07579 69.3133 6.52273C70.0978 5.96215 71.0856 5.68182 72.2774 5.68182C73.4692 5.68182 74.457 5.95455 75.2414 6.5C76.0259 7.03785 76.6112 7.7576 76.9957 8.65909C77.3884 9.55306 77.5843 10.5303 77.5843 11.5909C77.5843 12.8031 77.3884 13.8901 76.9957 14.8523C76.6112 15.8068 76.0259 16.5644 75.2414 17.125C74.457 17.6781 73.4692 17.9545 72.2774 17.9545C71.0856 17.9545 70.0978 17.6856 69.3133 17.1477C68.5289 16.6023 67.9403 15.8826 67.5485 14.9886C67.1632 14.0871 66.9705 13.106 66.9705 12.0455ZM84.7997 15.5114C84.652 15.9659 84.4373 16.3826 84.1564 16.7614C83.8822 17.1401 83.5344 17.4432 83.1124 17.6705C82.6977 17.8901 82.2022 18 81.625 18C80.8259 18 80.252 17.7841 79.9043 17.3523C79.5565 16.9205 79.3826 16.394 79.3826 15.7727V7.54545C79.3826 7.40909 79.3565 7.31058 79.3042 7.25C79.2528 7.18942 79.1606 7.15909 79.0267 7.15909H77.7059C77.5508 7.15909 77.4471 7.14012 77.3949 7.10227C77.3435 7.06442 77.3173 6.96967 77.3173 6.81818V6.20455C77.3173 6.06058 77.3361 5.97727 77.3728 5.95455C77.4169 5.92422 77.51 5.90909 77.6504 5.90909C78.0504 5.90909 78.3761 5.8826 78.6275 5.82955C78.879 5.77649 79.0863 5.65909 79.2487 5.47727C79.412 5.29545 79.5565 5.01136 79.6822 4.625C79.8079 4.23864 79.9451 3.71591 80.0928 3.05682C80.1222 2.92806 80.1557 2.84091 80.1924 2.79546C80.23 2.75 80.3296 2.72727 80.4928 2.72727H81.092C81.2846 2.72727 81.381 2.83715 81.381 3.05682V5.55682C81.381 5.71591 81.4177 5.81442 81.492 5.85227C81.5655 5.89012 81.6732 5.90909 81.8136 5.90909H84.2781C84.4267 5.90909 84.5222 5.93182 84.5671 5.97727C84.6185 6.02273 84.6446 6.125 84.6446 6.28409V6.875C84.6446 7.01136 84.6152 7.09467 84.5556 7.125C84.5042 7.14773 84.4111 7.15909 84.2781 7.15909H81.8357C81.6806 7.15909 81.5655 7.17806 81.492 7.21591C81.4177 7.25376 81.381 7.35988 81.381 7.53409V15.2955C81.381 15.75 81.4691 16.0795 81.6471 16.2841C81.825 16.4886 82.0618 16.5909 82.3573 16.5909C82.6756 16.5909 82.9605 16.4773 83.2128 16.25C83.4716 16.0151 83.6969 15.6818 83.8895 15.25C83.9418 15.1364 83.9858 15.0682 84.0226 15.0455C84.0675 15.0227 84.1491 15.0341 84.2675 15.0795L84.6226 15.2045C84.7115 15.2349 84.7703 15.269 84.7997 15.3068C84.8373 15.3447 84.8373 15.4129 84.7997 15.5114Z" fill="#5D4BFF"/>
</svg>
