<svg width="15" height="19" viewBox="0 0 15 19" fill="none" xmlns="http://www.w3.org/2000/svg">
<path d="M4.16659 10.8333V14.1667M10.8333 9.16667V14.1667M7.49992 5.83334V14.1667M14.1666 4.83334V13.5C14.1666 14.9001 14.1666 15.6002 13.8941 16.135C13.6544 16.6054 13.272 16.9878 12.8016 17.2275C12.2668 17.5 11.5667 17.5 10.1666 17.5H4.83325C3.43312 17.5 2.73306 17.5 2.19828 17.2275C1.72787 16.9878 1.34542 16.6054 1.10574 16.135C0.833252 15.6002 0.833252 14.9001 0.833252 13.5V4.83334C0.833252 3.4332 0.833252 2.73314 1.10574 2.19836C1.34542 1.72795 1.72787 1.3455 2.19828 1.10582C2.73306 0.833336 3.43312 0.833336 4.83325 0.833336H10.1666C11.5667 0.833336 12.2668 0.833336 12.8016 1.10582C13.272 1.3455 13.6544 1.72795 13.8941 2.19836C14.1666 2.73314 14.1666 3.4332 14.1666 4.83334Z" stroke="#5D4BFF" stroke-width="1.66667" stroke-linecap="round" stroke-linejoin="round"/>
</svg>
