<svg width="20" height="20" viewBox="0 0 20 20" fill="none" xmlns="http://www.w3.org/2000/svg">
<path d="M13.3337 7.49999V4.99999C13.3337 3.15904 11.8413 1.66666 10.0004 1.66666C8.15944 1.66666 6.66706 3.15904 6.66706 4.99999V7.49999M2.99373 8.62663L2.49373 13.96C2.35156 15.4764 2.28048 16.2346 2.5321 16.8202C2.75314 17.3347 3.14049 17.76 3.63207 18.0281C4.19166 18.3333 4.95319 18.3333 6.47626 18.3333H13.5245C15.0476 18.3333 15.8091 18.3333 16.3687 18.0281C16.8603 17.76 17.2476 17.3347 17.4687 16.8202C17.7203 16.2346 17.6492 15.4764 17.5071 13.96L17.0071 8.62663C16.887 7.34611 16.827 6.70585 16.539 6.22179C16.2854 5.79548 15.9107 5.45425 15.4625 5.24153C14.9537 4.99999 14.3106 4.99999 13.0245 4.99999L6.97626 4.99999C5.69013 4.99999 5.04707 4.99999 4.53824 5.24153C4.09011 5.45425 3.7154 5.79548 3.46177 6.22179C3.1738 6.70585 3.11377 7.34611 2.99373 8.62663Z" stroke="#7A7A7A" stroke-width="1.66667" stroke-linecap="round" stroke-linejoin="round"/>
</svg>
